<?xml version="1.0" encoding="UTF-8" standalone="no"?>
<!-- Created with Inkscape (http://www.inkscape.org/) -->

<svg
   width="141.465mm"
   height="141.465mm"
   viewBox="0 0 141.46499 141.465"
   version="1.1"
   id="svg1"
   xml:space="preserve"
   inkscape:version="1.4.4 (dcaf3e7d9e, 2026-05-05)"
   sodipodi:docname="logo.svg"
   xmlns:inkscape="http://www.inkscape.org/namespaces/inkscape"
   xmlns:sodipodi="http://sodipodi.sourceforge.net/DTD/sodipodi-0.dtd"
   xmlns="http://www.w3.org/2000/svg"
   xmlns:svg="http://www.w3.org/2000/svg"><sodipodi:namedview
     id="namedview1"
     pagecolor="#ffffff"
     bordercolor="#000000"
     borderopacity="0.25"
     inkscape:showpageshadow="2"
     inkscape:pageopacity="0.0"
     inkscape:pagecheckerboard="0"
     inkscape:deskcolor="#d1d1d1"
     inkscape:document-units="mm"
     inkscape:zoom="0.74564394"
     inkscape:cx="311.81102"
     inkscape:cy="453.97003"
     inkscape:window-width="1904"
     inkscape:window-height="1003"
     inkscape:window-x="20"
     inkscape:window-y="20"
     inkscape:window-maximized="0"
     inkscape:current-layer="layer1" /><defs
     id="defs1" /><g
     inkscape:label="Layer 1"
     inkscape:groupmode="layer"
     id="layer1"
     transform="translate(-22.074749,-28.418432)"><path
       style="fill:#32104d;fill-opacity:1;stroke-width:0.645774"
       d="m 55.810978,120.25397 c -3.171762,-0.57449 -4.97617,-1.67834 -5.643932,-3.45269 -1.097686,-2.91676 1.006961,-5.70932 3.968233,-5.26524 1.264632,0.18964 2.063176,0.89121 2.782542,2.44461 1.031972,2.22845 1.217419,2.5067 2.054374,3.08246 0.68791,0.47323 0.956868,0.55529 1.819867,0.55529 2.922442,0 4.458326,-2.48773 4.933848,-7.99155 0.2716,-3.14358 0.146397,-34.063165 -0.141379,-34.914637 -0.488037,-1.443994 -1.348572,-2.176689 -3.070869,-2.614672 l -0.807979,-0.205466 -0.05089,-1.057364 -0.05089,-1.057364 13.805176,0.0026 13.805172,0.0026 0.585769,1.407373 c 0.32217,0.774056 0.879601,2.046243 1.238742,2.827087 0.359134,0.78085 0.652967,1.450795 0.652967,1.488779 0,0.03797 0.89317,2.090162 1.984824,4.560408 1.091655,2.470251 2.044242,4.645133 2.116872,4.833079 0.07263,0.187952 0.326103,0.764609 0.563276,1.28146 0.237173,0.516851 1.200547,2.708148 2.140826,4.869539 2.055113,4.724015 3.003553,6.888306 3.519123,8.030459 0.2121,0.469872 0.87151,1.952859 1.46535,3.295539 0.59384,1.34268 1.12936,2.38065 1.19005,2.30662 0.0607,-0.074 0.46434,-0.94193 0.897,-1.92865 2.90119,-6.616421 4.65204,-10.601619 4.91682,-11.191385 0.766,-1.706185 4.34269,-9.827782 5.38008,-12.216557 0.63257,-1.456594 1.25452,-2.879007 1.38212,-3.160926 0.12761,-0.281919 0.80817,-1.819667 1.51237,-3.41722 l 1.28035,-2.904638 6.54236,-0.04501 6.54235,-0.04501 -0.0568,1.100269 -0.0568,1.100269 -0.71214,0.119765 c -1.73422,0.291657 -2.89454,1.114973 -3.47883,2.46845 -0.56776,1.315183 -0.45122,6.12008 0.45379,18.709268 0.0946,1.315628 0.29239,4.275796 0.43958,6.578147 0.68118,10.654998 0.80951,11.680518 1.6007,12.791638 0.46151,0.64813 1.88051,1.3418 3.04911,1.49053 l 0.89702,0.11417 v 1.25944 1.25945 h -8.88477 -8.88477 v -1.28146 c 0,-1.24813 0.011,-1.28145 0.42118,-1.28145 0.58183,0 1.95902,-0.48404 2.53089,-0.88953 0.66003,-0.46798 1.30496,-1.82628 1.42854,-3.00869 0.0972,-0.92976 -0.0562,-4.50063 -0.45258,-10.539528 -0.0925,-1.409607 -0.28456,-4.677318 -0.42672,-7.261594 -0.59602,-10.834989 -0.76593,-13.232559 -0.92448,-13.045531 -0.0679,0.08004 -0.34359,0.683746 -0.61274,1.341556 -0.26916,0.657818 -0.73525,1.734245 -1.03577,2.392055 -0.30051,0.657818 -0.74786,1.674737 -0.99409,2.259827 -0.24624,0.585084 -0.63227,1.46929 -0.85785,1.964895 -0.22558,0.495612 -0.96441,2.169748 -1.64184,3.720314 -1.29905,2.973349 -3.30831,7.530321 -6.05706,13.737226 -0.9114,2.05803 -1.71911,3.90333 -1.7949,4.10066 -0.0758,0.19734 -0.36568,0.85857 -0.64419,1.46939 -0.27851,0.61083 -1.02705,2.28313 -1.66344,3.71623 l -1.15706,2.60563 h -1.39367 c -1.36023,0 -1.39824,-0.0113 -1.58434,-0.46987 -0.218,-0.5372 -3.440348,-7.69974 -4.076132,-9.0603 -0.231748,-0.49593 -0.42136,-0.93267 -0.42136,-0.97053 0,-0.0378 -0.223219,-0.55475 -0.496045,-1.14864 -0.27282,-0.59389 -1.395187,-3.11732 -2.494152,-5.607612 -1.779455,-4.032327 -4.33139,-9.788539 -4.961543,-11.191392 -0.126636,-0.281919 -0.816806,-1.85811 -1.533712,-3.50265 -1.854119,-4.253207 -2.346289,-5.311307 -2.431086,-5.226504 -0.04101,0.04101 -0.180848,1.75272 -0.310772,3.803833 -0.129929,2.051112 -0.277618,4.344396 -0.328195,5.09618 -0.05056,0.75179 -0.206001,3.212187 -0.345385,5.467551 -0.139378,2.255365 -0.34864,5.446196 -0.465028,7.090724 -0.116382,1.64454 -0.212938,4.6047 -0.214565,6.57815 -0.0026,3.44715 0.01317,3.62052 0.407134,4.41422 0.507456,1.02228 1.37914,1.62626 2.899395,2.00895 l 1.132893,0.28519 v 1.17363 1.17364 l -6.721192,0.0447 c -3.69666,0.0246 -6.69527,-0.0139 -6.663576,-0.0854 0.214442,-0.48436 1.916327,-2.66322 2.63546,-3.37409 1.504278,-1.48697 1.907221,-3.28694 2.372004,-10.59579 0.143426,-2.25536 0.301415,-4.677314 0.351094,-5.382112 0.171789,-2.437168 0.596282,-8.981037 0.764758,-11.789403 0.09302,-1.550567 0.255874,-3.970636 0.361898,-5.377938 0.106023,-1.407302 0.148179,-3.021936 0.09369,-3.588079 -0.221222,-2.298231 -1.082297,-3.601105 -2.715193,-4.108289 -0.809723,-0.251503 -0.962306,-0.253892 -1.499467,-0.02344 -1.03491,0.443963 -1.76971,1.305399 -2.096511,2.457815 -0.120352,0.424402 -0.220712,6.247445 -0.29382,17.047227 l -0.111021,16.402649 -0.445403,1.70862 c -1.005121,3.85573 -2.584858,6.22382 -5.440991,8.15627 -2.827694,1.9132 -7.826927,2.79749 -11.773843,2.0826 z"
       id="path1" /><rect
       style="fill:none;fill-opacity:1;stroke:#32104d;stroke-width:4.46500051;stroke-linejoin:round;stroke-dasharray:none;stroke-opacity:1"
       id="rect1"
       width="132"
       height="132"
       x="26.807249"
       y="33.150932" /></g></svg>
